<mxfile host="app.diagrams.net" modified="2021-05-23T00:27:32.601Z" agent="5.0 (Windows NT 6.1; WOW64) AppleWebKit/537.36 (KHTML, like Gecko) Chrome/90.0.4430.212 Safari/537.36" etag="QaQ28K88EWJ4-3KXgFDI" version="14.7.0" type="github">
  <diagram id="AFhm8CYUgASPvFjVGmoe" name="Page-1">
    <mxGraphModel dx="868" dy="450" grid="1" gridSize="10" guides="1" tooltips="1" connect="1" arrows="1" fold="1" page="1" pageScale="1" pageWidth="827" pageHeight="1169" math="0" shadow="0">
      <root>
        <mxCell id="0" />
        <mxCell id="1" parent="0" />
        <mxCell id="CZofmQrTorOFxw5RHJOT-10" style="edgeStyle=orthogonalEdgeStyle;rounded=0;orthogonalLoop=1;jettySize=auto;html=1;exitX=0.5;exitY=1;exitDx=0;exitDy=0;entryX=0.5;entryY=0;entryDx=0;entryDy=0;" edge="1" parent="1" source="CZofmQrTorOFxw5RHJOT-1" target="CZofmQrTorOFxw5RHJOT-2">
          <mxGeometry relative="1" as="geometry" />
        </mxCell>
        <mxCell id="CZofmQrTorOFxw5RHJOT-1" value="Başlanğıc" style="rounded=1;whiteSpace=wrap;html=1;" vertex="1" parent="1">
          <mxGeometry x="360" y="10" width="120" height="60" as="geometry" />
        </mxCell>
        <mxCell id="CZofmQrTorOFxw5RHJOT-19" style="edgeStyle=orthogonalEdgeStyle;rounded=0;orthogonalLoop=1;jettySize=auto;html=1;exitX=0.5;exitY=1;exitDx=0;exitDy=0;" edge="1" parent="1" source="CZofmQrTorOFxw5RHJOT-2">
          <mxGeometry relative="1" as="geometry">
            <mxPoint x="420" y="280" as="targetPoint" />
          </mxGeometry>
        </mxCell>
        <mxCell id="CZofmQrTorOFxw5RHJOT-2" value="Daxil et a,b" style="shape=parallelogram;perimeter=parallelogramPerimeter;whiteSpace=wrap;html=1;fixedSize=1;" vertex="1" parent="1">
          <mxGeometry x="360" y="130" width="120" height="60" as="geometry" />
        </mxCell>
        <mxCell id="CZofmQrTorOFxw5RHJOT-18" style="edgeStyle=orthogonalEdgeStyle;rounded=0;orthogonalLoop=1;jettySize=auto;html=1;" edge="1" parent="1" source="CZofmQrTorOFxw5RHJOT-3">
          <mxGeometry relative="1" as="geometry">
            <mxPoint x="417" y="430" as="targetPoint" />
          </mxGeometry>
        </mxCell>
        <mxCell id="CZofmQrTorOFxw5RHJOT-3" value="a&amp;gt;0&lt;br&gt;b&amp;gt;0" style="shape=parallelogram;perimeter=parallelogramPerimeter;whiteSpace=wrap;html=1;fixedSize=1;" vertex="1" parent="1">
          <mxGeometry x="357" y="280" width="120" height="60" as="geometry" />
        </mxCell>
        <mxCell id="CZofmQrTorOFxw5RHJOT-17" style="edgeStyle=orthogonalEdgeStyle;rounded=0;orthogonalLoop=1;jettySize=auto;html=1;exitX=0.5;exitY=1;exitDx=0;exitDy=0;" edge="1" parent="1" source="CZofmQrTorOFxw5RHJOT-6">
          <mxGeometry relative="1" as="geometry">
            <mxPoint x="417" y="590" as="targetPoint" />
          </mxGeometry>
        </mxCell>
        <mxCell id="CZofmQrTorOFxw5RHJOT-6" value="P=2*(a+b)&lt;br&gt;" style="rounded=0;whiteSpace=wrap;html=1;" vertex="1" parent="1">
          <mxGeometry x="357" y="430" width="120" height="60" as="geometry" />
        </mxCell>
        <mxCell id="CZofmQrTorOFxw5RHJOT-15" style="edgeStyle=orthogonalEdgeStyle;rounded=0;orthogonalLoop=1;jettySize=auto;html=1;exitX=0.5;exitY=1;exitDx=0;exitDy=0;" edge="1" parent="1" source="CZofmQrTorOFxw5RHJOT-7">
          <mxGeometry relative="1" as="geometry">
            <mxPoint x="420" y="750" as="targetPoint" />
          </mxGeometry>
        </mxCell>
        <mxCell id="CZofmQrTorOFxw5RHJOT-7" value="S=a*b" style="rounded=0;whiteSpace=wrap;html=1;" vertex="1" parent="1">
          <mxGeometry x="360" y="590" width="120" height="60" as="geometry" />
        </mxCell>
        <mxCell id="CZofmQrTorOFxw5RHJOT-14" style="edgeStyle=orthogonalEdgeStyle;rounded=0;orthogonalLoop=1;jettySize=auto;html=1;" edge="1" parent="1" source="CZofmQrTorOFxw5RHJOT-8" target="CZofmQrTorOFxw5RHJOT-9">
          <mxGeometry relative="1" as="geometry" />
        </mxCell>
        <mxCell id="CZofmQrTorOFxw5RHJOT-8" value="Perimetr və sahəni göstər" style="shape=parallelogram;perimeter=parallelogramPerimeter;whiteSpace=wrap;html=1;fixedSize=1;" vertex="1" parent="1">
          <mxGeometry x="353" y="750" width="134" height="70" as="geometry" />
        </mxCell>
        <mxCell id="CZofmQrTorOFxw5RHJOT-9" value="Son" style="rounded=1;whiteSpace=wrap;html=1;" vertex="1" parent="1">
          <mxGeometry x="360" y="930" width="120" height="60" as="geometry" />
        </mxCell>
      </root>
    </mxGraphModel>
  </diagram>
</mxfile>
